<?xml version="1.0" encoding="iso-8859-1"?>
<!-- Generator: Adobe Illustrator 19.0.0, SVG Export Plug-In . SVG Version: 6.00 Build 0)  -->
<svg version="1.1" id="Capa_1" xmlns="http://www.w3.org/2000/svg" xmlns:xlink="http://www.w3.org/1999/xlink" x="0px" y="0px"
	 viewBox="0 0 512.001 512.001" style="enable-background:new 0 0 512.001 512.001;" xml:space="preserve">
<circle style="fill:#35CCFF;" cx="256" cy="256" r="256"/>
<path style="fill:#00BAFF;" d="M511.469,272.299L332.054,92.884L138.69,195.19L82.139,262l241.067,241.067
	C426.943,474.915,504.499,383.19,511.469,272.299z"/>
<path style="fill:#F2D99C;" d="M369.455,353.514l-71.992-9.209c-8.838-1.131-15.459-8.653-15.459-17.562v-32.654h-52.007v32.654
	c0,8.91-6.621,16.432-15.459,17.562l-71.992,9.209c-22.037,2.819-38.547,21.575-38.547,43.792v64.688
	C146.509,493.414,199.081,512,256,512s109.491-18.586,152.001-50.007v-64.688C408.001,375.088,391.492,356.333,369.455,353.514z"/>
<path style="fill:#CCB27A;" d="M369.455,353.514l-71.992-9.209c-8.838-1.131-15.459-8.653-15.459-17.562v-32.654H255.75v217.909
	c0.083,0,0.167,0.003,0.25,0.003c56.919,0,109.491-18.586,152.001-50.007v-64.688C408.001,375.088,391.492,356.333,369.455,353.514z
	"/>
<path style="fill:#FFECB3;" d="M305.162,299.136l-14.163,7.626c-21.763,11.718-47.957,11.718-69.72,0l-14.163-7.626
	c-26.154-14.083-42.464-41.389-42.464-71.094v-87.359h182.973v87.359C347.626,257.747,331.316,285.053,305.162,299.136z"/>
<path style="fill:#FFD863;" d="M347.625,140.683H255.75v174.862c12.119,0.064,24.25-2.86,35.249-8.783l14.163-7.626
	c26.154-14.083,42.464-41.389,42.464-71.094L347.625,140.683L347.625,140.683z"/>
<path style="fill:#983262;" d="M369.455,353.514l-60.93-7.794C295.389,359.732,276.723,368.5,256,368.5s-39.389-8.768-52.525-22.781
	l-60.93,7.794c-22.037,2.819-38.547,21.575-38.547,43.792v64.688C146.509,493.414,199.081,512,256,512
	s109.491-18.586,152.001-50.007v-64.688C408.001,375.088,391.492,356.333,369.455,353.514z"/>
<path style="fill:#662E57;" d="M369.455,353.514l-60.93-7.794C295.389,359.732,276.723,368.5,256,368.5
	c-0.084,0-0.166-0.006-0.25-0.007v143.504c0.083,0,0.167,0.003,0.25,0.003c56.919,0,109.491-18.586,152.001-50.007v-64.688
	C408.001,375.088,391.492,356.333,369.455,353.514z"/>
<path style="fill:#8C6239;" d="M149.5,199.116c70.361,0,106.361-51.918,106.361-51.918s36.277,51.918,106.639,51.918v-31.691
	c0-58.944-47.885-106.703-106.877-106.499C196.763,61.13,149.5,109.721,149.5,168.582V199.116z"/>
<path style="fill:#754C24;" d="M255.75,60.927v86.427c0.073-0.103,0.111-0.157,0.111-0.157s36.277,51.918,106.639,51.918v-31.69
	C362.5,108.524,314.684,60.792,255.75,60.927z"/>
<path style="fill:#8C6239;" d="M149.639,262h-67.5l21.799-77.457C107.523,171.802,119.144,163,132.379,163h17.259v99H149.639z"/>
<rect x="132.75" y="163" style="fill:#FF3F84;" width="16.889" height="36.12"/>
<path style="fill:#754C24;" d="M362.361,262h67.5l-21.799-77.457C404.477,171.802,392.856,163,379.621,163h-17.259v99H362.361z"/>
<rect x="362.36" y="163" style="fill:#983262;" width="16.889" height="36.12"/>
<g>
</g>
<g>
</g>
<g>
</g>
<g>
</g>
<g>
</g>
<g>
</g>
<g>
</g>
<g>
</g>
<g>
</g>
<g>
</g>
<g>
</g>
<g>
</g>
<g>
</g>
<g>
</g>
<g>
</g>
</svg>
