<?xml version="1.0" encoding="iso-8859-1"?>
<!-- Generator: Adobe Illustrator 19.0.0, SVG Export Plug-In . SVG Version: 6.00 Build 0)  -->
<svg version="1.1" id="Capa_1" xmlns="http://www.w3.org/2000/svg" xmlns:xlink="http://www.w3.org/1999/xlink" x="0px" y="0px"
	 viewBox="0 0 512 512" style="enable-background:new 0 0 512 512;" xml:space="preserve">
<circle style="fill:#FFDC00;" cx="256" cy="256" r="256"/>
<path style="fill:#FFC000;" d="M511.47,272.276L328.334,89.14L257,315.5l148.395,148.395
	C465.832,420.387,506.518,351.182,511.47,272.276z"/>
<rect x="149.64" y="189.94" style="fill:#754C24;" width="213" height="174.76"/>
<rect x="255.95" y="189.94" style="fill:#603813;" width="106.69" height="174.76"/>
<path style="fill:#F2D99C;" d="M369.455,353.514l-71.992-9.209c-8.838-1.131-15.459-8.653-15.459-17.562v-32.654h-52.007v32.654
	c0,8.91-6.621,16.432-15.459,17.562l-71.992,9.209c-22.037,2.819-38.547,21.575-38.547,43.792v64.688
	C146.509,493.414,199.081,512,256,512s109.491-18.586,152.001-50.007v-64.688C408.001,375.088,391.492,356.333,369.455,353.514z"/>
<path style="fill:#D1B679;" d="M369.455,353.514l-71.992-9.209c-8.838-1.131-15.459-8.653-15.459-17.562v-32.654h-26.051V512
	c0.016,0,0.032,0,0.048,0c56.919,0,109.491-18.586,152.001-50.007v-64.688C408.001,375.088,391.492,356.333,369.455,353.514z"/>
<path style="fill:#FFECB3;" d="M305.162,299.136l-14.163,7.626c-21.763,11.718-47.957,11.718-69.72,0l-14.163-7.626
	c-26.154-14.083-42.464-41.389-42.464-71.094v-87.359h182.973v87.359C347.626,257.747,331.316,285.053,305.162,299.136z"/>
<path style="fill:#FFD863;" d="M347.625,140.683h-91.673v174.865c12.051,0.031,24.109-2.896,35.047-8.786l14.163-7.626
	c26.154-14.083,42.464-41.389,42.464-71.094L347.625,140.683z"/>
<path style="fill:#008CC3;" d="M369.455,353.514l-60.93-7.794C295.389,359.732,276.723,368.5,256,368.5s-39.389-8.768-52.525-22.781
	l-60.93,7.794c-22.037,2.819-38.547,21.575-38.547,43.792v64.688C146.509,493.414,199.081,512,256,512
	s109.491-18.586,152.001-50.007v-64.688C408.001,375.088,391.492,356.333,369.455,353.514z"/>
<g>
	<path style="fill:#0074A3;" d="M369.455,353.514l-60.93-7.794C295.389,359.732,276.723,368.5,256,368.5
		c-0.016,0-0.032-0.001-0.048-0.001V512c0.016,0,0.032,0,0.048,0c56.919,0,109.491-18.586,152.001-50.007v-64.688
		C408.001,375.088,391.492,356.333,369.455,353.514z"/>
	<path style="fill:#0074A3;" d="M252.252,368.401c-19.219-0.987-36.438-9.519-48.777-22.682l-26.294,3.364l22.747,29.354
		c10.159,13.11,29.364,14.713,41.556,3.469L256,368.517C254.741,368.517,253.492,368.477,252.252,368.401z"/>
</g>
<path style="fill:#005C83;" d="M256,368.517l14.516,13.388c12.192,11.245,31.397,9.642,41.556-3.469l22.747-29.354l-26.294-3.364
	c-12.339,13.163-29.558,21.694-48.777,22.682C258.508,368.477,257.259,368.517,256,368.517z"/>
<path style="fill:#8C6239;" d="M255.762,60.926c-58.86,0.204-106.123,48.795-106.123,107.655v148.72l12.472-29.597
	c3.59-8.519,5.439-17.67,5.439-26.914v-59.537c95.284-12.072,130.345-55.878,130.345-55.878s12.907,30.69,46.834,55.988v59.427
	c0,9.244,1.849,18.395,5.439,26.914l12.472,29.597V167.425C362.639,108.482,314.753,60.722,255.762,60.926z"/>
<path style="fill:#754C24;" d="M362.639,167.425c0-58.88-47.783-106.598-106.686-106.497v114.758
	c29.689-15.009,41.942-30.311,41.942-30.311s12.907,30.69,46.834,55.988v59.427c0,9.244,1.849,18.395,5.439,26.914l12.472,29.597
	L362.639,167.425z"/>
<g>
</g>
<g>
</g>
<g>
</g>
<g>
</g>
<g>
</g>
<g>
</g>
<g>
</g>
<g>
</g>
<g>
</g>
<g>
</g>
<g>
</g>
<g>
</g>
<g>
</g>
<g>
</g>
<g>
</g>
</svg>
